PathFileType	4	(X/Y/Z)	D:\MotionData\Pi-Spi Study\20230118_AMCsubject1\Trimmed_left_abd_001_rotated.trc
DataRate	CameraRate	NumFrames	NumMarkers	Units	OrigDataRate	OrigDataStartFrame	OrigNumFrames
200.00	200.00	       10	35	mm	200.00	126	       200
Frame#	Time	C7			Sternum			r_AMC1			r_AMC2			r_AMC3			l_AMC1			l_AMC2			l_AMC3			PX			T8			r_humerous			r_elbow_medial			r_elbow_lateral			r_forearm			r_wrist_radius			r_wrist_ulna			r_MCP_1			r_MCP_3			l_humerous			l_elbow_medial			l_elbow_lateral			l_forearm			l_wrist_radius			l_wrist_ulna			l_MCP_1			l_MCP_3			r_ASIS			r_PSIS			l_ASIS			l_PSIS			r_IC			l_IC			TS			AI			AA			
		X1	Y1	Z1	X2	Y2	Z2	X3	Y3	Z3	X4	Y4	Z4	X5	Y5	Z5	X6	Y6	Z6	X7	Y7	Z7	X8	Y8	Z8	X9	Y9	Z9	X10	Y10	Z10	X11	Y11	Z11	X12	Y12	Z12	X13	Y13	Z13	X14	Y14	Z14	X15	Y15	Z15	X16	Y16	Z16	X17	Y17	Z17	X18	Y18	Z18	X19	Y19	Z19	X20	Y20	Z20	X21	Y21	Z21	X22	Y22	Z22	X23	Y23	Z23	X24	Y24	Z24	X25	Y25	Z25	X26	Y26	Z26	X27	Y27	Z27	X28	Y28	Z28	X29	Y29	Z29	X30	Y30	Z30	X31	Y31	Z31	X32	Y32	Z32	X33	Y33	Z33	X34	Y34	Z34	X35	Y35	Z35	

126	0.625	208.5449	1374.564	-206.2425	336.6313	1302.557	-199.1485	208.6846	1315.6783	-39.9411	247.5574	1311.8525	-9.0338	268.5	1346.4403	-29.2066	228.9684	1324.382	-372.2677	268.0513	1316.1008	-403.8685	292.0496	1351.4304	-374.1369	391.208	1112.4115	-195.3222	158.2423	1191.3839	-216.6285	314.7835	1124.9022	-1.5533	250.3853	986.366	-32.8131	256.966	995.3112	35.5404	312.5819	841.2037	60.9087	364.7203	779.5474	45.3567	315.7517	771.7978	60.5172	387.75	697.3875	59.4684	338.5678	692.8535	70.6697	351.4837	1122.9729	-395.6454	290.3196	993.5632	-367.9419	294.8234	989.2988	-420.1562	330.026	839.9466	-452.5468	371.0191	766.7316	-447.5736	326.2593	763.0296	-447.0405	379.2462	687.2477	-457.9082	330.678	683.9945	-452.2404	376.3044	906.7161	-66.3111	187.0437	923.96	-152.4171	380.4792	893.3289	-328.4083	189.2756	918.6508	-255.7656	286.1065	966.2073	-41.1445	288.8922	938.8411	-366.4747	134.0307	1309.2627	-322.4168	119.7371	1209.4111	-314.0833	210.6122	1293.6139	-436.7115
127	0.63	208.5394	1374.567	-206.2512	336.6398	1302.5563	-199.1312	208.6833	1315.7054	-39.9029	247.5597	1311.8242	-9.0026	268.5183	1346.4363	-29.2201	228.9891	1324.3827	-372.283	268.0577	1316.1017	-403.8667	292.0738	1351.4453	-374.1024	391.2726	1112.4371	-195.3312	158.2286	1191.4103	-216.6102	315.1351	1125.1517	-1.2371	250.3629	986.3718	-32.7899	256.9817	995.262	35.4615	312.5782	841.1895	60.9221	364.7211	779.5316	45.3344	315.7074	771.8215	60.5441	387.7247	697.413	59.4604	338.5868	692.8195	70.6535	351.4995	1122.9367	-395.5992	290.3499	993.5856	-367.8958	294.8403	989.2775	-420.1338	330.0424	839.9599	-452.507	371.05	766.6639	-447.582	326.2817	763.0136	-447.0328	379.2535	687.2723	-457.915	330.6746	683.9805	-452.222	376.3052	906.7333	-66.3019	187.0476	923.985	-152.3863	380.4942	893.3206	-328.4162	189.2706	918.6364	-255.7368	286.1839	966.1344	-41.1305	288.8833	938.8546	-366.4724	134.0696	1309.2806	-322.4317	119.7301	1209.4164	-314.0634	210.6402	1293.6743	-436.6766
128	0.635	208.479	1374.5132	-206.2138	336.365	1302.2714	-199.2304	208.7055	1315.7413	-39.8748	247.575	1311.8334	-8.9961	268.5501	1346.4336	-29.2415	229.1123	1324.2927	-372.0109	268.0894	1316.0953	-403.8633	292.0621	1351.4545	-374.0123	391.3217	1112.4383	-195.3219	158.2336	1191.4042	-216.6216	314.7262	1124.9406	-1.4941	250.3989	986.3704	-32.8382	256.9476	995.2913	35.5149	312.5487	841.1934	60.9177	364.6565	779.6003	45.3581	315.7078	771.8132	60.5252	387.9295	697.5876	59.6301	338.5569	692.8102	70.6847	351.5052	1122.9647	-395.6118	290.3344	993.5608	-367.9198	294.8475	989.2789	-420.1261	330.0598	839.907	-452.5225	371.0473	766.716	-447.5378	326.2789	762.9968	-447.0278	379.2267	687.3463	-457.9153	330.7007	683.9947	-452.187	376.3185	906.7278	-66.303	187.0528	923.9414	-152.4045	380.4792	893.3261	-328.3872	189.2649	918.6322	-255.7353	286.1389	966.1572	-41.1314	288.8596	938.8773	-366.44	134.0609	1309.2773	-322.432	119.7333	1209.4016	-314.0597	210.6634	1293.6613	-436.684
129	0.64	208.5647	1374.579	-206.2173	336.6862	1302.5338	-199.125	208.7027	1315.7125	-39.8775	247.5891	1311.8363	-9.0246	268.5558	1346.4185	-29.2368	229.1037	1324.3317	-372.0065	268.1024	1316.0912	-403.8561	292.0618	1351.4424	-374.0008	391.2941	1112.4009	-195.2808	158.2228	1191.3954	-216.5867	314.7872	1124.8669	-1.5369	250.3919	986.3827	-32.8206	256.9422	995.276	35.517	312.5491	841.16	60.926	364.7212	779.5314	45.3144	315.6153	771.8728	60.5243	387.8892	697.5874	59.6271	338.6015	692.758	70.6489	351.5123	1122.962	-395.558	290.3478	993.5677	-367.9072	294.8662	989.2705	-420.1072	330.059	839.9279	-452.4865	371.0689	766.7139	-447.5347	326.3191	763.0364	-446.9922	379.4333	687.2709	-457.9899	330.7	683.9748	-452.1411	376.3205	906.7275	-66.3019	187.042	923.9616	-152.3859	380.4832	893.2914	-328.3913	189.282	918.6316	-255.7269	286.2328	966.0768	-41.1357	288.8768	938.8256	-366.4703	134.0625	1309.2856	-322.4544	119.7394	1209.4072	-314.0663	210.6563	1293.6674	-436.6708
130	0.645	208.5675	1374.5847	-206.2385	336.6781	1302.5708	-199.1208	208.6959	1315.7402	-39.8624	247.5762	1311.8472	-8.9813	268.6324	1346.2615	-29.323	228.9891	1324.4017	-372.2298	268.1149	1316.0957	-403.8484	292.1249	1351.511	-374.4074	391.3209	1112.407	-195.266	158.2488	1191.412	-216.5965	314.7678	1124.8892	-1.5173	250.3699	986.3755	-32.8116	256.9031	995.2698	35.5493	312.5143	841.184	60.9463	364.6944	779.5273	45.314	315.5476	771.9687	60.5397	387.9246	697.5488	59.6041	338.5555	692.7617	70.6072	351.5201	1123.012	-395.5495	290.6929	993.3974	-367.8754	294.8875	989.283	-420.0907	330.1089	839.9223	-452.4902	371.0972	766.6801	-447.4929	326.311	763.0215	-446.9925	379.4936	687.1807	-457.9651	330.6808	684.0148	-452.1476	376.33	906.7216	-66.303	187.0397	923.9797	-152.3593	380.4999	893.2946	-328.3997	189.2445	918.6246	-255.7102	286.1564	966.1267	-41.1414	288.8691	938.8805	-366.4239	134.0736	1309.3121	-322.4341	119.7394	1209.4275	-314.0929	210.69	1293.6818	-436.694
131	0.65	208.5884	1374.5791	-206.22	336.6948	1302.5305	-199.1146	208.7213	1315.7325	-39.8749	247.5839	1311.8634	-8.995	268.5974	1346.4236	-29.2513	229.0436	1324.3259	-372.2622	268.135	1316.0895	-403.8539	292.1274	1351.4324	-374.0526	391.3288	1112.3899	-195.2671	158.2396	1191.3846	-216.5875	314.7375	1124.9121	-1.4842	250.3628	986.3913	-32.8127	256.921	995.3058	35.5392	312.5094	841.1765	60.9222	364.6699	779.536	45.3251	315.6684	771.7915	60.4988	387.6658	697.4119	59.4828	338.5572	692.7655	70.6416	351.5497	1122.9486	-395.5746	290.3796	993.5787	-367.8876	294.9078	989.2872	-420.091	330.1011	839.8801	-452.4685	371.106	766.6958	-447.5191	326.3444	763.0323	-446.9728	379.3118	687.2687	-457.8255	330.687	684.0043	-452.1529	376.32	906.7074	-66.2752	187.0461	923.9614	-152.3664	380.4978	893.3013	-328.375	189.2734	918.6382	-255.7209	286.1487	966.1368	-41.1064	288.8622	938.8452	-366.4258	134.0594	1309.2869	-322.4365	119.7634	1209.4242	-314.1033	210.7373	1293.6698	-436.6975
132	0.655	208.5928	1374.578	-206.2199	336.7052	1302.5376	-199.1084	208.719	1315.7258	-39.865	247.6274	1311.78	-8.9906	268.662	1346.2575	-29.3069	229.0489	1324.3683	-372.253	268.1414	1316.0902	-403.8346	292.139	1351.4211	-374.0539	391.3071	1112.4092	-195.2333	158.2428	1191.4113	-216.5859	314.7524	1124.9041	-1.4859	250.3454	986.4017	-32.8113	256.8806	995.2647	35.5252	312.5394	841.1601	60.9135	364.6261	779.5669	45.3504	315.6424	771.8214	60.5089	387.634	697.4261	59.4995	338.4649	692.7985	70.6234	351.5996	1122.9375	-395.538	290.4556	993.6	-367.846	294.9168	989.2804	-420.0766	330.1327	839.8853	-452.4518	371.1584	766.6026	-447.4773	326.3557	763.0013	-446.9558	379.285	687.2938	-457.786	330.2336	684.8291	-452.312	376.2965	906.6671	-66.2453	187.0671	923.9595	-152.3807	380.535	893.2977	-328.3508	189.2599	918.6219	-255.7032	286.2189	966.0265	-41.0831	288.8951	938.8127	-366.4605	134.1346	1309.322	-322.4681	119.7582	1209.4573	-314.1101	210.7606	1293.6765	-436.6987
133	0.66	208.6086	1374.5717	-206.21	336.6797	1302.5308	-199.0777	208.7281	1315.7445	-39.8563	247.6194	1311.8146	-8.9894	268.6148	1346.4473	-29.2345	229.0292	1324.3771	-372.2341	268.1707	1316.0817	-403.8508	292.134	1351.4276	-374.0746	391.3807	1112.3957	-195.2883	158.2805	1191.4077	-216.6082	315.096	1125.1348	-1.1791	250.3582	986.4044	-32.8162	256.9269	995.3123	35.5157	312.5034	841.1647	60.9319	364.6308	779.5555	45.3449	315.6558	771.7949	60.4644	387.692	697.3394	59.4432	338.4496	692.8228	70.6458	351.6431	1122.9547	-395.5538	290.4529	993.5584	-367.8361	294.947	989.2505	-420.0627	330.1378	839.8868	-452.436	371.1871	766.6666	-447.4547	326.359	763.0211	-446.953	379.5766	687.1508	-457.8744	330.7175	684.0132	-452.1279	376.3133	906.6855	-66.283	187.0616	923.9748	-152.3748	380.5154	893.3154	-328.3648	189.2835	918.6478	-255.7128	286.1861	966.09	-41.1097	288.8761	938.8577	-366.4362	134.1329	1309.3368	-322.4551	119.7443	1209.4716	-314.1217	210.7693	1293.7086	-436.6934
134	0.665	208.6111	1374.5783	-206.2119	336.7033	1302.5508	-199.0912	208.7386	1315.728	-39.8646	247.6158	1311.8292	-8.9728	268.5659	1346.4758	-29.2081	229.0366	1324.3812	-372.2237	268.1697	1316.0819	-403.8218	292.1966	1351.4874	-374.3806	391.3792	1112.4094	-195.2209	158.2697	1191.4208	-216.5919	314.7405	1124.9251	-1.4644	250.3313	986.3994	-32.7894	256.8905	995.3248	35.5559	312.4736	841.1705	60.9174	364.5897	779.5674	45.3694	315.6451	771.7811	60.5237	387.6564	697.3411	59.4357	338.4402	692.8336	70.6508	351.6426	1122.954	-395.5511	290.7404	993.4201	-367.8142	294.9527	989.2878	-420.0441	330.1482	839.9061	-452.4169	371.149	766.6683	-447.427	326.3903	763.0105	-446.9517	379.3184	687.2705	-457.8115	330.7423	683.9744	-452.0616	376.2834	906.7138	-66.24	186.9943	923.9123	-152.3613	380.506	893.317	-328.3748	189.2874	918.6315	-255.7155	286.1406	966.0923	-41.0863	288.8764	938.8516	-366.4557	134.1095	1309.348	-322.4718	119.729	1209.4628	-314.0824	210.8135	1293.7064	-436.7216
135	0.67	208.62	1374.5929	-206.2158	336.7071	1302.5182	-199.0755	208.7335	1315.7555	-39.8357	247.6342	1311.7999	-8.9668	268.6916	1346.2593	-29.285	229.0442	1324.3756	-372.2158	268.1916	1316.0552	-403.8384	292.1786	1351.5542	-374.3177	391.2971	1112.4001	-195.2107	158.2749	1191.424	-216.5753	314.7964	1124.8342	-1.4917	250.3085	986.4009	-32.7874	256.8984	995.287	35.5126	312.481	841.1483	60.9308	364.5771	779.5851	45.3425	315.6043	771.8284	60.5471	387.6402	697.3504	59.436	338.4842	692.7665	70.6517	351.6384	1122.9105	-395.5368	290.4586	993.563	-367.824	294.9849	989.2772	-420.0346	330.1913	839.8869	-452.4068	371.1685	766.6353	-447.4229	326.4031	763.007	-446.9441	379.4687	687.3372	-457.9525	330.7612	683.965	-452.0616	376.3221	906.6957	-66.2646	187.0663	923.974	-152.3621	380.553	893.2936	-328.355	189.3113	918.6448	-255.7124	286.1636	966.0912	-41.0935	288.8724	938.8613	-366.4038	134.1509	1309.3525	-322.4711	119.7532	1209.4841	-314.1081	210.82	1293.728	-436.691
